<?xml version="1.0" ?><svg id="Layer_1_1_" style="enable-background:new 0 0 16 16;" version="1.1" viewBox="0 0 16 16" xml:space="preserve" xmlns="http://www.w3.org/2000/svg" xmlns:xlink="http://www.w3.org/1999/xlink"><path d="M8,0C4.032,0,0.748,2.892,0.118,6.681C0.634,6.262,1.283,6,2,6c0.549,0,1.057,0.158,1.5,0.416C3.943,6.158,4.451,6,5,6  s1.057,0.158,1.5,0.416C6.943,6.158,7.451,6,8,6v7.5c0,1.379,1.121,2.5,2.5,2.5s2.5-1.121,2.5-2.5V13h-1v0.5  c0,0.827-0.673,1.5-1.5,1.5S9,14.327,9,13.5V6.187c0.173,0.064,0.342,0.138,0.5,0.23C9.943,6.158,10.451,6,11,6  s1.057,0.158,1.5,0.416C12.943,6.158,13.451,6,14,6c0.717,0,1.366,0.262,1.882,0.681C15.252,2.892,11.968,0,8,0z"/></svg>